<?xml version="1.0" encoding="utf-8"?>
<!-- Generator: Adobe Illustrator 24.2.0, SVG Export Plug-In . SVG Version: 6.00 Build 0)  -->
<svg version="1.1" id="Layer_1" xmlns="http://www.w3.org/2000/svg" xmlns:xlink="http://www.w3.org/1999/xlink" x="0px" y="0px"
	 viewBox="0 0 500 500" style="enable-background:new 0 0 500 500;" xml:space="preserve">
<style type="text/css">
	.st0{fill:url(#SVGID_1_);}
</style>
<linearGradient id="SVGID_1_" gradientUnits="userSpaceOnUse" x1="-393.5499" y1="-29.9034" x2="-83.9628" y2="-29.9034" gradientTransform="matrix(-0.8722 0.6137 -0.6147 -0.8737 41.6823 384.6898)">
	<stop  offset="0" style="stop-color:#008C37"/>
	<stop  offset="0.9666" style="stop-color:#003B00"/>
</linearGradient>
<path class="st0" d="M360.5,429.4c-7.9,4.2-36.4-7.2-56.7-6.5c-21.2,0.8-63,7.8-70.5-13.1c-7.5-20.8-5.2-42.7,0.1-58.2
	c5.4-15.5,22.2-46.3,14.7-49.5c-7.5-3.2-24.4,19.1-32.6,38c-8.2,18.9-13.1,25.5-17,40.7c-3.5,13.6,6.3,36.7,6.3,36.7
	s-61.9-18.5-62-55.7c-0.1-37.2,31.1-64.5,36.2-69.9c11.3-11.9,42.2-44.7,27.9-48.4s-34,25.9-43,36.1c-9.1,10.3-22.9,24-28.4,35.6
	c-5.5,11.7-10.8,31.7-10.8,31.7S49.1,241.7,93.7,180.9s44.8-59.6,65.6-60.5c20.8-1,55.8,23.4,55.8,23.4s-23-7.3-37.5-4.3
	s-29.4,9.6-29.4,9.6s20.8-7.5,37.4-6.1c16.6,1.4,31.3,7.4,31.3,7.4s-37.2,13.8-56.3,24.6s-49.1,37.8-49.1,37.8s34.5-26.9,55-34.8
	c20.5-7.9,54.7-22.4,54.7-22.4s8.6,13.6,8.6,19.6c0,7.2-43.9,30.9-65.1,57.6c-29,36.5-27.8,54.1-27.8,54.1s-2.6-19.8,36.7-56.9
	c39.5-37.3,60.9-46.3,60.9-46.3l18.8,39.7c0,0-39.3,41.1-55,83.1c-15.5,41.6-13.9,35.2-13.9,35.2s12.2-24.7,25.2-49.7
	c15.7-30.4,47.3-60.7,47.3-60.7l30.8,58.6c0,0-22.7,33.6-26.6,52s2.8,38.5,2.8,38.5s-8.9-23.1,2.7-43.7s23.2-37.9,23.2-37.9
	l53.2,96.5l-28.6-65.5c0,0,11.4-1.2,20.6,2.9c7,3.1,24.3,16,24.3,16s-10.5-10.3-20.9-16.7s-28.2-9.1-28.2-9.1l-32.7-66.9
	c0,0,11.3-6.2,39.9-3.5c28.6,2.7,39.9,10.4,39.9,10.4s-41.1-14.8-53.8-14.4s-29.3,1-29.3,1l-22.5-51.4c0,0,16.1-6.8,43-7.4
	c26.9-0.7,43.1,1,43.1,1s-41.8-3.9-52.6-3.5s-33.4,7.2-37.1,3.9c-3.6-3.3-13.8-28.8-13.8-28.8s-0.3,4.2,15.7-4.5
	s29.4-25.9,44.1-29.1c14.7-3.2,42.8,0.6,42.8,0.6s-39.8-5.9-47.3-2.7c-16.5,7.1-25.1,20.3-39.3,25c-14.2,4.8-18.9,2.8-18.9,2.8
	s0.6,3.9-0.4-4.3c-0.7-5.7,10.3-19.7,21-28.5c10.7-8.9,40.2-17.4,40.2-17.4s-27.9,4.8-47.5,19.9c-9.4,7.2-16.1,19.8-16.1,19.8
	s-6.2-39.4,16.1-51.2s60-32.4,103.5,8.1s52.6,70.1,56.6,80.4c4,10.3,8.1,37.4,8.1,37.4s-30.8-12.3-46.9-14.7
	c-16-2.4-42-3.1-41.2,5.4c0.8,8.6,28.5,12.6,47.8,20.6s39.7,18.4,43.1,29.8c3.4,11.3-10.2,50.3-10.2,50.3s-23.1-17.1-35-19.1
	s-25.6-6.8-28.6-2.7c-3,4.1-2.4,9.5,27.3,21.3c29.8,11.7,26.3,11.5,30.8,21.5c4.4,10-7.5,30.1-19.3,49.5
	C369.2,401.1,365.4,426,360.5,429.4z"/>
</svg>
