<?xml version="1.0" encoding="utf-8"?>
<!-- Generator: Adobe Illustrator 24.2.0, SVG Export Plug-In . SVG Version: 6.00 Build 0)  -->
<svg version="1.1" id="Layer_1" xmlns="http://www.w3.org/2000/svg" xmlns:xlink="http://www.w3.org/1999/xlink" x="0px" y="0px"
	 viewBox="0 0 1500 500" style="enable-background:new 0 0 1500 500;" xml:space="preserve">
<style type="text/css">
	.st0{fill:url(#SVGID_1_);}
	.st1{fill:url(#SVGID_2_);}
	.st2{fill:url(#SVGID_3_);}
	.st3{fill:url(#SVGID_4_);}
	.st4{fill:url(#SVGID_5_);}
	.st5{fill:url(#SVGID_6_);}
	.st6{fill:url(#SVGID_7_);}
	.st7{fill:url(#SVGID_8_);}
	.st8{fill:url(#SVGID_9_);}
	.st9{fill:url(#SVGID_10_);}
</style>
<g>
	<g>
		<path d="M151.28,154.87v74.98h86.68v-74.98h23.4v179.21h-23.4v-84.02h-86.68v84.02h-23.13V154.87H151.28z"/>
		<path d="M311.6,205.39l28.18,76.04c2.92,8.51,6.12,18.61,8.24,26.32h0.53c2.39-7.71,5.05-17.55,8.24-26.85l25.52-75.51h24.73
			l-35.1,91.73c-16.75,44.14-28.18,66.74-44.14,80.56c-11.43,10.1-22.87,14.09-28.72,15.16l-5.85-19.68
			c5.85-1.86,13.56-5.58,20.47-11.43c6.38-5.05,14.36-14.09,19.68-26.06c1.06-2.39,1.86-4.25,1.86-5.58s-0.53-3.19-1.6-6.12
			l-47.59-118.58H311.6z"/>
		<path d="M536.81,145.3v155.54c0,11.43,0.27,24.46,1.06,33.24h-21l-1.06-22.33h-0.53C508.09,326.1,492.4,337,471.4,337
			c-31.11,0-55.04-26.32-55.04-65.41c-0.27-42.81,26.32-69.13,57.7-69.13c19.68,0,32.97,9.31,38.82,19.68h0.53V145.3H536.81z
			 M513.41,257.76c0-2.92-0.27-6.91-1.06-9.84c-3.46-14.89-16.22-27.12-33.77-27.12c-24.2,0-38.55,21.27-38.55,49.72
			c0,26.06,12.76,47.59,38.02,47.59c15.69,0,30.04-10.37,34.3-27.92c0.8-3.19,1.06-6.38,1.06-10.1V257.76z"/>
		<path d="M575.62,245.53c0-15.16-0.27-28.18-1.06-40.15h20.47l0.8,25.26h1.06c5.85-17.28,19.94-28.18,35.63-28.18
			c2.66,0,4.52,0.27,6.65,0.8v22.07c-2.39-0.53-4.79-0.8-7.98-0.8c-16.48,0-28.18,12.5-31.37,30.04c-0.53,3.19-1.06,6.91-1.06,10.9
			v68.6h-23.13V245.53z"/>
		<path d="M776.37,268.67c0,47.59-32.97,68.33-64.08,68.33c-34.83,0-61.69-25.53-61.69-66.21c0-43.07,28.18-68.33,63.81-68.33
			C751.37,202.46,776.37,229.31,776.37,268.67z M674.27,270c0,28.18,16.22,49.45,39.08,49.45c22.33,0,39.08-21,39.08-49.99
			c0-21.8-10.9-49.45-38.55-49.45C686.23,220.01,674.27,245.53,674.27,270z"/>
		<path d="M931.9,328.22c-8.51,4.25-25.52,8.51-47.33,8.51c-50.52,0-88.54-31.91-88.54-90.67c0-56.1,38.02-94.12,93.59-94.12
			c22.33,0,36.43,4.79,42.54,7.98l-5.58,18.88c-8.77-4.25-21.27-7.44-36.16-7.44c-42.01,0-69.93,26.85-69.93,73.92
			c0,43.87,25.26,72.05,68.86,72.05c14.09,0,28.45-2.92,37.76-7.44L931.9,328.22z"/>
		<path d="M960.08,145.3h23.4v188.78h-23.4V145.3z"/>
		<path d="M1139.29,268.67c0,47.59-32.97,68.33-64.08,68.33c-34.83,0-61.69-25.53-61.69-66.21c0-43.07,28.18-68.33,63.81-68.33
			C1114.29,202.46,1139.29,229.31,1139.29,268.67z M1037.19,270c0,28.18,16.22,49.45,39.08,49.45c22.33,0,39.08-21,39.08-49.99
			c0-21.8-10.9-49.45-38.55-49.45C1049.15,220.01,1037.19,245.53,1037.19,270z"/>
		<path d="M1260.53,329.29c-6.12,3.19-19.68,7.45-36.96,7.45c-38.82,0-64.08-26.32-64.08-65.67c0-39.62,27.12-68.33,69.13-68.33
			c13.83,0,26.06,3.46,32.44,6.65l-5.32,18.08c-5.58-3.19-14.36-6.11-27.12-6.11c-29.51,0-45.47,21.8-45.47,48.66
			c0,29.78,19.14,48.13,44.67,48.13c13.29,0,22.07-3.46,28.72-6.38L1260.53,329.29z"/>
		<path d="M1311.04,264.41h0.53c3.19-4.52,7.71-10.1,11.43-14.62l37.76-44.4h28.18l-49.72,52.91l56.63,75.78h-28.45l-44.4-61.69
			l-11.96,13.29v48.39h-23.13V145.3h23.13V264.41z"/>
	</g>
	<g>
		<linearGradient id="SVGID_1_" gradientUnits="userSpaceOnUse" x1="128.1504" y1="269.0647" x2="1395.8604" y2="269.0647">
			<stop  offset="0" style="stop-color:#3C8F38"/>
			<stop  offset="0.1514" style="stop-color:#3A922F"/>
			<stop  offset="0.4024" style="stop-color:#359915"/>
			<stop  offset="0.5521" style="stop-color:#329E03"/>
			<stop  offset="0.8652" style="stop-color:#43C500"/>
		</linearGradient>
		<path class="st0" d="M151.28,154.87v74.98h86.68v-74.98h23.4v179.21h-23.4v-84.02h-86.68v84.02h-23.13V154.87H151.28z"/>
		<linearGradient id="SVGID_2_" gradientUnits="userSpaceOnUse" x1="128.1504" y1="269.0647" x2="1395.8604" y2="269.0647">
			<stop  offset="0" style="stop-color:#3C8F38"/>
			<stop  offset="0.1514" style="stop-color:#3A922F"/>
			<stop  offset="0.4024" style="stop-color:#359915"/>
			<stop  offset="0.5521" style="stop-color:#329E03"/>
			<stop  offset="0.8652" style="stop-color:#43C500"/>
		</linearGradient>
		<path class="st1" d="M311.6,205.39l28.18,76.04c2.92,8.51,6.12,18.61,8.24,26.32h0.53c2.39-7.71,5.05-17.55,8.24-26.85
			l25.52-75.51h24.73l-35.1,91.73c-16.75,44.14-28.18,66.74-44.14,80.56c-11.43,10.1-22.87,14.09-28.72,15.16l-5.85-19.68
			c5.85-1.86,13.56-5.58,20.47-11.43c6.38-5.05,14.36-14.09,19.68-26.06c1.06-2.39,1.86-4.25,1.86-5.58s-0.53-3.19-1.6-6.12
			l-47.59-118.58H311.6z"/>
		<linearGradient id="SVGID_3_" gradientUnits="userSpaceOnUse" x1="128.1504" y1="269.0647" x2="1395.8604" y2="269.0647">
			<stop  offset="0" style="stop-color:#3C8F38"/>
			<stop  offset="0.1514" style="stop-color:#3A922F"/>
			<stop  offset="0.4024" style="stop-color:#359915"/>
			<stop  offset="0.5521" style="stop-color:#329E03"/>
			<stop  offset="0.8652" style="stop-color:#43C500"/>
		</linearGradient>
		<path class="st2" d="M536.81,145.3v155.54c0,11.43,0.27,24.46,1.06,33.24h-21l-1.06-22.33h-0.53C508.09,326.1,492.4,337,471.4,337
			c-31.11,0-55.04-26.32-55.04-65.41c-0.27-42.81,26.32-69.13,57.7-69.13c19.68,0,32.97,9.31,38.82,19.68h0.53V145.3H536.81z
			 M513.41,257.76c0-2.92-0.27-6.91-1.06-9.84c-3.46-14.89-16.22-27.12-33.77-27.12c-24.2,0-38.55,21.27-38.55,49.72
			c0,26.06,12.76,47.59,38.02,47.59c15.69,0,30.04-10.37,34.3-27.92c0.8-3.19,1.06-6.38,1.06-10.1V257.76z"/>
		<linearGradient id="SVGID_4_" gradientUnits="userSpaceOnUse" x1="128.1504" y1="269.0647" x2="1395.8604" y2="269.0647">
			<stop  offset="0" style="stop-color:#3C8F38"/>
			<stop  offset="0.1514" style="stop-color:#3A922F"/>
			<stop  offset="0.4024" style="stop-color:#359915"/>
			<stop  offset="0.5521" style="stop-color:#329E03"/>
			<stop  offset="0.8652" style="stop-color:#43C500"/>
		</linearGradient>
		<path class="st3" d="M575.62,245.53c0-15.16-0.27-28.18-1.06-40.15h20.47l0.8,25.26h1.06c5.85-17.28,19.94-28.18,35.63-28.18
			c2.66,0,4.52,0.27,6.65,0.8v22.07c-2.39-0.53-4.79-0.8-7.98-0.8c-16.48,0-28.18,12.5-31.37,30.04c-0.53,3.19-1.06,6.91-1.06,10.9
			v68.6h-23.13V245.53z"/>
		<linearGradient id="SVGID_5_" gradientUnits="userSpaceOnUse" x1="128.1504" y1="269.0647" x2="1395.8604" y2="269.0647">
			<stop  offset="0" style="stop-color:#3C8F38"/>
			<stop  offset="0.1514" style="stop-color:#3A922F"/>
			<stop  offset="0.4024" style="stop-color:#359915"/>
			<stop  offset="0.5521" style="stop-color:#329E03"/>
			<stop  offset="0.8652" style="stop-color:#43C500"/>
		</linearGradient>
		<path class="st4" d="M776.37,268.67c0,47.59-32.97,68.33-64.08,68.33c-34.83,0-61.69-25.53-61.69-66.21
			c0-43.07,28.18-68.33,63.81-68.33C751.37,202.46,776.37,229.31,776.37,268.67z M674.27,270c0,28.18,16.22,49.45,39.08,49.45
			c22.33,0,39.08-21,39.08-49.99c0-21.8-10.9-49.45-38.55-49.45C686.23,220.01,674.27,245.53,674.27,270z"/>
		<linearGradient id="SVGID_6_" gradientUnits="userSpaceOnUse" x1="128.1504" y1="269.0647" x2="1395.8604" y2="269.0647">
			<stop  offset="0" style="stop-color:#3C8F38"/>
			<stop  offset="0.1514" style="stop-color:#3A922F"/>
			<stop  offset="0.4024" style="stop-color:#359915"/>
			<stop  offset="0.5521" style="stop-color:#329E03"/>
			<stop  offset="0.8652" style="stop-color:#43C500"/>
		</linearGradient>
		<path class="st5" d="M931.9,328.22c-8.51,4.25-25.52,8.51-47.33,8.51c-50.52,0-88.54-31.91-88.54-90.67
			c0-56.1,38.02-94.12,93.59-94.12c22.33,0,36.43,4.79,42.54,7.98l-5.58,18.88c-8.77-4.25-21.27-7.44-36.16-7.44
			c-42.01,0-69.93,26.85-69.93,73.92c0,43.87,25.26,72.05,68.86,72.05c14.09,0,28.45-2.92,37.76-7.44L931.9,328.22z"/>
		<linearGradient id="SVGID_7_" gradientUnits="userSpaceOnUse" x1="128.1504" y1="269.0647" x2="1395.8604" y2="269.0647">
			<stop  offset="0" style="stop-color:#3C8F38"/>
			<stop  offset="0.1514" style="stop-color:#3A922F"/>
			<stop  offset="0.4024" style="stop-color:#359915"/>
			<stop  offset="0.5521" style="stop-color:#329E03"/>
			<stop  offset="0.8652" style="stop-color:#43C500"/>
		</linearGradient>
		<path class="st6" d="M960.08,145.3h23.4v188.78h-23.4V145.3z"/>
		<linearGradient id="SVGID_8_" gradientUnits="userSpaceOnUse" x1="128.1504" y1="269.0647" x2="1395.8604" y2="269.0647">
			<stop  offset="0" style="stop-color:#3C8F38"/>
			<stop  offset="0.1514" style="stop-color:#3A922F"/>
			<stop  offset="0.4024" style="stop-color:#359915"/>
			<stop  offset="0.5521" style="stop-color:#329E03"/>
			<stop  offset="0.8652" style="stop-color:#43C500"/>
		</linearGradient>
		<path class="st7" d="M1139.29,268.67c0,47.59-32.97,68.33-64.08,68.33c-34.83,0-61.69-25.53-61.69-66.21
			c0-43.07,28.18-68.33,63.81-68.33C1114.29,202.46,1139.29,229.31,1139.29,268.67z M1037.19,270c0,28.18,16.22,49.45,39.08,49.45
			c22.33,0,39.08-21,39.08-49.99c0-21.8-10.9-49.45-38.55-49.45C1049.15,220.01,1037.19,245.53,1037.19,270z"/>
		<linearGradient id="SVGID_9_" gradientUnits="userSpaceOnUse" x1="128.1504" y1="269.0647" x2="1395.8604" y2="269.0647">
			<stop  offset="0" style="stop-color:#3C8F38"/>
			<stop  offset="0.1514" style="stop-color:#3A922F"/>
			<stop  offset="0.4024" style="stop-color:#359915"/>
			<stop  offset="0.5521" style="stop-color:#329E03"/>
			<stop  offset="0.8652" style="stop-color:#43C500"/>
		</linearGradient>
		<path class="st8" d="M1260.53,329.29c-6.12,3.19-19.68,7.45-36.96,7.45c-38.82,0-64.08-26.32-64.08-65.67
			c0-39.62,27.12-68.33,69.13-68.33c13.83,0,26.06,3.46,32.44,6.65l-5.32,18.08c-5.58-3.19-14.36-6.11-27.12-6.11
			c-29.51,0-45.47,21.8-45.47,48.66c0,29.78,19.14,48.13,44.67,48.13c13.29,0,22.07-3.46,28.72-6.38L1260.53,329.29z"/>
		<linearGradient id="SVGID_10_" gradientUnits="userSpaceOnUse" x1="128.1504" y1="269.0647" x2="1395.8604" y2="269.0647">
			<stop  offset="0" style="stop-color:#3C8F38"/>
			<stop  offset="0.1514" style="stop-color:#3A922F"/>
			<stop  offset="0.4024" style="stop-color:#359915"/>
			<stop  offset="0.5521" style="stop-color:#329E03"/>
			<stop  offset="0.8652" style="stop-color:#43C500"/>
		</linearGradient>
		<path class="st9" d="M1311.04,264.41h0.53c3.19-4.52,7.71-10.1,11.43-14.62l37.76-44.4h28.18l-49.72,52.91l56.63,75.78h-28.45
			l-44.4-61.69l-11.96,13.29v48.39h-23.13V145.3h23.13V264.41z"/>
	</g>
</g>
</svg>
