<?xml version="1.0" encoding="utf-8"?>
<!-- Generator: Adobe Illustrator 24.2.0, SVG Export Plug-In . SVG Version: 6.00 Build 0)  -->
<svg version="1.1" xmlns="http://www.w3.org/2000/svg" xmlns:xlink="http://www.w3.org/1999/xlink" x="0px" y="0px"
	 viewBox="0 0 1500 500" style="enable-background:new 0 0 1500 500;" xml:space="preserve">
<style type="text/css">
	.st0{fill:url(#SVGID_1_);}
	.st1{fill:url(#SVGID_2_);}
	.st2{fill:url(#SVGID_3_);}
	.st3{fill:url(#SVGID_4_);}
	.st4{fill:url(#SVGID_5_);}
	.st5{fill:url(#SVGID_6_);}
	.st6{fill:url(#SVGID_7_);}
	.st7{fill:url(#SVGID_8_);}
	.st8{fill:url(#SVGID_9_);}
	.st9{fill:url(#SVGID_10_);}
	.st10{fill:url(#SVGID_11_);}
	.st11{fill:url(#SVGID_12_);}
	.st12{fill:url(#SVGID_13_);}
	.st13{fill:url(#SVGID_14_);}
	.st14{fill:url(#SVGID_15_);}
	.st15{fill:url(#SVGID_16_);}
	.st16{fill:url(#SVGID_17_);}
	.st17{fill:url(#SVGID_18_);}
	.st18{fill:url(#SVGID_19_);}
	.st19{fill:url(#SVGID_20_);}
	.st20{fill:url(#SVGID_21_);}
</style>
<g id="Layer_1">
	<g>
		<g>
			<linearGradient id="SVGID_1_" gradientUnits="userSpaceOnUse" x1="484.8269" y1="236.2176" x2="583.2196" y2="236.2176">
				<stop  offset="0" style="stop-color:#008C37"/>
				<stop  offset="0.9666" style="stop-color:#003B00"/>
			</linearGradient>
			<path class="st0" d="M501.9,170v55.4h64V170h17.3v132.4h-17.3v-62.1h-64v62.1h-17.1V170H501.9z"/>
			<linearGradient id="SVGID_2_" gradientUnits="userSpaceOnUse" x1="601.4563" y1="276.5762" x2="690.8229" y2="276.5762">
				<stop  offset="0" style="stop-color:#008C37"/>
				<stop  offset="0.9666" style="stop-color:#003B00"/>
			</linearGradient>
			<path class="st1" d="M620.3,207.3l20.8,56.2c2.2,6.3,4.5,13.7,6.1,19.4h0.4c1.8-5.7,3.7-13,6.1-19.8l18.8-55.8h18.3l-25.9,67.8
				c-12.4,32.6-20.8,49.3-32.6,59.5c-8.4,7.5-16.9,10.4-21.2,11.2l-4.3-14.5c4.3-1.4,10-4.1,15.1-8.4c4.7-3.7,10.6-10.4,14.5-19.2
				c0.8-1.8,1.4-3.1,1.4-4.1s-0.4-2.4-1.2-4.5l-35.2-87.6L620.3,207.3L620.3,207.3z"/>
			<linearGradient id="SVGID_3_" gradientUnits="userSpaceOnUse" x1="697.7054" y1="233.7617" x2="787.4576" y2="233.7617">
				<stop  offset="0" style="stop-color:#008C37"/>
				<stop  offset="0.9666" style="stop-color:#003B00"/>
			</linearGradient>
			<path class="st2" d="M786.7,163v114.9c0,8.4,0.2,18.1,0.8,24.6h-15.5l-0.8-16.5h-0.4c-5.3,10.6-16.9,18.7-32.4,18.7
				c-23,0-40.7-19.4-40.7-48.3c-0.2-31.6,19.4-51.1,42.6-51.1c14.5,0,24.4,6.9,28.7,14.5h0.4V163H786.7z M769.4,246
				c0-2.2-0.2-5.1-0.8-7.3c-2.6-11-12-20-24.9-20c-17.9,0-28.5,15.7-28.5,36.7c0,19.2,9.4,35.2,28.1,35.2c11.6,0,22.2-7.7,25.3-20.6
				c0.6-2.4,0.8-4.7,0.8-7.5V246z"/>
			<linearGradient id="SVGID_4_" gradientUnits="userSpaceOnUse" x1="814.5579" y1="253.7895" x2="862.2806" y2="253.7895">
				<stop  offset="0" style="stop-color:#008C37"/>
				<stop  offset="0.9666" style="stop-color:#003B00"/>
			</linearGradient>
			<path class="st3" d="M815.3,237c0-11.2-0.2-20.8-0.8-29.7h15.1l0.6,18.7h0.8c4.3-12.8,14.7-20.8,26.3-20.8c2,0,3.3,0.2,4.9,0.6
				v16.3c-1.8-0.4-3.5-0.6-5.9-0.6c-12.2,0-20.8,9.2-23.2,22.2c-0.4,2.4-0.8,5.1-0.8,8.1v50.7h-17.1L815.3,237L815.3,237z"/>
			<linearGradient id="SVGID_5_" gradientUnits="userSpaceOnUse" x1="870.7232" y1="254.8716" x2="963.6205" y2="254.8716">
				<stop  offset="0" style="stop-color:#008C37"/>
				<stop  offset="0.9666" style="stop-color:#003B00"/>
			</linearGradient>
			<path class="st4" d="M963.6,254.1c0,35.2-24.4,50.5-47.3,50.5c-25.7,0-45.6-18.9-45.6-48.9c0-31.8,20.8-50.5,47.1-50.5
				C945.2,205.2,963.6,225,963.6,254.1z M888.2,255.1c0,20.8,12,36.5,28.9,36.5c16.5,0,28.9-15.5,28.9-36.9
				c0-16.1-8.1-36.5-28.5-36.5C897,218.1,888.2,237,888.2,255.1z"/>
			<linearGradient id="SVGID_6_" gradientUnits="userSpaceOnUse" x1="978.1419" y1="236.1142" x2="1078.6913" y2="236.1142">
				<stop  offset="0" style="stop-color:#008C37"/>
				<stop  offset="0.9666" style="stop-color:#003B00"/>
			</linearGradient>
			<path class="st5" d="M1078.5,298.1c-6.3,3.1-18.8,6.3-35,6.3c-37.3,0-65.4-23.6-65.4-67c0-41.4,28.1-69.5,69.1-69.5
				c16.5,0,26.9,3.5,31.4,5.9l-4.1,13.9c-6.5-3.1-15.7-5.5-26.7-5.5c-31,0-51.7,19.8-51.7,54.6c0,32.4,18.7,53.2,50.9,53.2
				c10.4,0,21-2.2,27.9-5.5L1078.5,298.1z"/>
			<linearGradient id="SVGID_7_" gradientUnits="userSpaceOnUse" x1="1099.3138" y1="232.6833" x2="1116.5978" y2="232.6833">
				<stop  offset="0" style="stop-color:#008C37"/>
				<stop  offset="0.9666" style="stop-color:#003B00"/>
			</linearGradient>
			<path class="st6" d="M1099.3,163h17.3v139.4h-17.3V163z"/>
			<linearGradient id="SVGID_8_" gradientUnits="userSpaceOnUse" x1="1138.7861" y1="254.8716" x2="1231.6833" y2="254.8716">
				<stop  offset="0" style="stop-color:#008C37"/>
				<stop  offset="0.9666" style="stop-color:#003B00"/>
			</linearGradient>
			<path class="st7" d="M1231.7,254.1c0,35.2-24.4,50.5-47.3,50.5c-25.7,0-45.6-18.9-45.6-48.9c0-31.8,20.8-50.5,47.1-50.5
				C1213.2,205.2,1231.7,225,1231.7,254.1z M1156.3,255.1c0,20.8,12,36.5,28.9,36.5c16.5,0,28.9-15.5,28.9-36.9
				c0-16.1-8.1-36.5-28.5-36.5C1165.1,218.1,1156.3,237,1156.3,255.1z"/>
			<linearGradient id="SVGID_9_" gradientUnits="userSpaceOnUse" x1="1246.6038" y1="254.879" x2="1321.6261" y2="254.879">
				<stop  offset="0" style="stop-color:#008C37"/>
				<stop  offset="0.9666" style="stop-color:#003B00"/>
			</linearGradient>
			<path class="st8" d="M1321.2,298.9c-4.5,2.4-14.5,5.5-27.3,5.5c-28.7,0-47.3-19.4-47.3-48.5c0-29.3,20-50.5,51.1-50.5
				c10.2,0,19.2,2.6,24,4.9l-3.9,13.4c-4.1-2.4-10.6-4.5-20-4.5c-21.8,0-33.6,16.1-33.6,35.9c0,22,14.1,35.6,33,35.6
				c9.8,0,16.3-2.6,21.2-4.7L1321.2,298.9z"/>
			<linearGradient id="SVGID_10_" gradientUnits="userSpaceOnUse" x1="1341.4585" y1="232.6833" x2="1421.1859" y2="232.6833">
				<stop  offset="0" style="stop-color:#008C37"/>
				<stop  offset="0.9666" style="stop-color:#003B00"/>
			</linearGradient>
			<path class="st9" d="M1358.5,250.9h0.4c2.4-3.3,5.7-7.5,8.4-10.8l27.9-32.8h20.8l-36.7,39.1l41.8,56h-21l-32.8-45.6l-8.8,9.8
				v35.7h-17.1V163h17.1L1358.5,250.9L1358.5,250.9z"/>
		</g>
		<g>
			
				<linearGradient id="SVGID_11_" gradientUnits="userSpaceOnUse" x1="484.8269" y1="263.7824" x2="1421.1931" y2="263.7824" gradientTransform="matrix(1 0 0 -1 0 500)">
				<stop  offset="0" style="stop-color:#008C37"/>
				<stop  offset="0.9666" style="stop-color:#003B00"/>
			</linearGradient>
			<path class="st10" d="M501.9,170v55.4h64V170h17.3v132.4h-17.3v-62.1h-64v62.1h-17.1V170H501.9z"/>
			
				<linearGradient id="SVGID_12_" gradientUnits="userSpaceOnUse" x1="484.8272" y1="223.4238" x2="1421.1935" y2="223.4238" gradientTransform="matrix(1 0 0 -1 0 500)">
				<stop  offset="0" style="stop-color:#008C37"/>
				<stop  offset="0.9666" style="stop-color:#003B00"/>
			</linearGradient>
			<path class="st11" d="M620.3,207.3l20.8,56.2c2.2,6.3,4.5,13.7,6.1,19.4h0.4c1.8-5.7,3.7-13,6.1-19.8l18.8-55.8h18.3l-25.9,67.8
				c-12.4,32.6-20.8,49.3-32.6,59.5c-8.4,7.5-16.9,10.4-21.2,11.2l-4.3-14.5c4.3-1.4,10-4.1,15.1-8.4c4.7-3.7,10.6-10.4,14.5-19.2
				c0.8-1.8,1.4-3.1,1.4-4.1s-0.4-2.4-1.2-4.5l-35.2-87.6L620.3,207.3L620.3,207.3z"/>
			
				<linearGradient id="SVGID_13_" gradientUnits="userSpaceOnUse" x1="484.8272" y1="266.2383" x2="1421.1935" y2="266.2383" gradientTransform="matrix(1 0 0 -1 0 500)">
				<stop  offset="0" style="stop-color:#008C37"/>
				<stop  offset="0.9666" style="stop-color:#003B00"/>
			</linearGradient>
			<path class="st12" d="M786.7,163v114.9c0,8.4,0.2,18.1,0.8,24.6h-15.5l-0.8-16.5h-0.4c-5.3,10.6-16.9,18.7-32.4,18.7
				c-23,0-40.7-19.4-40.7-48.3c-0.2-31.6,19.4-51.1,42.6-51.1c14.5,0,24.4,6.9,28.7,14.5h0.4V163H786.7z M769.4,246
				c0-2.2-0.2-5.1-0.8-7.3c-2.6-11-12-20-24.9-20c-17.9,0-28.5,15.7-28.5,36.7c0,19.2,9.4,35.2,28.1,35.2c11.6,0,22.2-7.7,25.3-20.6
				c0.6-2.4,0.8-4.7,0.8-7.5V246z"/>
			
				<linearGradient id="SVGID_14_" gradientUnits="userSpaceOnUse" x1="484.8272" y1="246.2105" x2="1421.1935" y2="246.2105" gradientTransform="matrix(1 0 0 -1 0 500)">
				<stop  offset="0" style="stop-color:#008C37"/>
				<stop  offset="0.9666" style="stop-color:#003B00"/>
			</linearGradient>
			<path class="st13" d="M815.3,237c0-11.2-0.2-20.8-0.8-29.7h15.1l0.6,18.7h0.8c4.3-12.8,14.7-20.8,26.3-20.8c2,0,3.3,0.2,4.9,0.6
				v16.3c-1.8-0.4-3.5-0.6-5.9-0.6c-12.2,0-20.8,9.2-23.2,22.2c-0.4,2.4-0.8,5.1-0.8,8.1v50.7h-17.1L815.3,237L815.3,237z"/>
			
				<linearGradient id="SVGID_15_" gradientUnits="userSpaceOnUse" x1="484.8272" y1="245.1284" x2="1421.1935" y2="245.1284" gradientTransform="matrix(1 0 0 -1 0 500)">
				<stop  offset="0" style="stop-color:#008C37"/>
				<stop  offset="0.9666" style="stop-color:#003B00"/>
			</linearGradient>
			<path class="st14" d="M963.6,254.1c0,35.2-24.4,50.5-47.3,50.5c-25.7,0-45.6-18.9-45.6-48.9c0-31.8,20.8-50.5,47.1-50.5
				C945.2,205.2,963.6,225,963.6,254.1z M888.2,255.1c0,20.8,12,36.5,28.9,36.5c16.5,0,28.9-15.5,28.9-36.9
				c0-16.1-8.1-36.5-28.5-36.5C897,218.1,888.2,237,888.2,255.1z"/>
			
				<linearGradient id="SVGID_16_" gradientUnits="userSpaceOnUse" x1="484.8272" y1="263.8858" x2="1421.1935" y2="263.8858" gradientTransform="matrix(1 0 0 -1 0 500)">
				<stop  offset="0" style="stop-color:#008C37"/>
				<stop  offset="0.9666" style="stop-color:#003B00"/>
			</linearGradient>
			<path class="st15" d="M1078.5,298.1c-6.3,3.1-18.8,6.3-35,6.3c-37.3,0-65.4-23.6-65.4-67c0-41.4,28.1-69.5,69.1-69.5
				c16.5,0,26.9,3.5,31.4,5.9l-4.1,13.9c-6.5-3.1-15.7-5.5-26.7-5.5c-31,0-51.7,19.8-51.7,54.6c0,32.4,18.7,53.2,50.9,53.2
				c10.4,0,21-2.2,27.9-5.5L1078.5,298.1z"/>
			
				<linearGradient id="SVGID_17_" gradientUnits="userSpaceOnUse" x1="484.8272" y1="267.3167" x2="1421.1935" y2="267.3167" gradientTransform="matrix(1 0 0 -1 0 500)">
				<stop  offset="0" style="stop-color:#008C37"/>
				<stop  offset="0.9666" style="stop-color:#003B00"/>
			</linearGradient>
			<path class="st16" d="M1099.3,163h17.3v139.4h-17.3V163z"/>
			
				<linearGradient id="SVGID_18_" gradientUnits="userSpaceOnUse" x1="484.8272" y1="245.1284" x2="1421.1935" y2="245.1284" gradientTransform="matrix(1 0 0 -1 0 500)">
				<stop  offset="0" style="stop-color:#008C37"/>
				<stop  offset="0.9666" style="stop-color:#003B00"/>
			</linearGradient>
			<path class="st17" d="M1231.7,254.1c0,35.2-24.4,50.5-47.3,50.5c-25.7,0-45.6-18.9-45.6-48.9c0-31.8,20.8-50.5,47.1-50.5
				C1213.2,205.2,1231.7,225,1231.7,254.1z M1156.3,255.1c0,20.8,12,36.5,28.9,36.5c16.5,0,28.9-15.5,28.9-36.9
				c0-16.1-8.1-36.5-28.5-36.5C1165.1,218.1,1156.3,237,1156.3,255.1z"/>
			
				<linearGradient id="SVGID_19_" gradientUnits="userSpaceOnUse" x1="484.8272" y1="245.121" x2="1421.1935" y2="245.121" gradientTransform="matrix(1 0 0 -1 0 500)">
				<stop  offset="0" style="stop-color:#008C37"/>
				<stop  offset="0.9666" style="stop-color:#003B00"/>
			</linearGradient>
			<path class="st18" d="M1321.2,298.9c-4.5,2.4-14.5,5.5-27.3,5.5c-28.7,0-47.3-19.4-47.3-48.5c0-29.3,20-50.5,51.1-50.5
				c10.2,0,19.2,2.6,24,4.9l-3.9,13.4c-4.1-2.4-10.6-4.5-20-4.5c-21.8,0-33.6,16.1-33.6,35.9c0,22,14.1,35.6,33,35.6
				c9.8,0,16.3-2.6,21.2-4.7L1321.2,298.9z"/>
			
				<linearGradient id="SVGID_20_" gradientUnits="userSpaceOnUse" x1="484.8272" y1="267.3167" x2="1421.1935" y2="267.3167" gradientTransform="matrix(1 0 0 -1 0 500)">
				<stop  offset="0" style="stop-color:#008C37"/>
				<stop  offset="0.9666" style="stop-color:#003B00"/>
			</linearGradient>
			<path class="st19" d="M1358.5,250.9h0.4c2.4-3.3,5.7-7.5,8.4-10.8l27.9-32.8h20.8l-36.7,39.1l41.8,56h-21l-32.8-45.6l-8.8,9.8
				v35.7h-17.1V163h17.1L1358.5,250.9L1358.5,250.9z"/>
		</g>
	</g>
</g>
<g id="Layer_2">
	
		<linearGradient id="SVGID_21_" gradientUnits="userSpaceOnUse" x1="488.7204" y1="257.8144" x2="798.3076" y2="257.8144" gradientTransform="matrix(-0.8722 0.6137 -0.6147 -0.8737 975.3069 76.5972)">
		<stop  offset="0" style="stop-color:#008C37"/>
		<stop  offset="0.9666" style="stop-color:#003B00"/>
	</linearGradient>
	<path class="st20" d="M347.7,411.4c-7.9,4.2-36.4-7.2-56.7-6.5c-21.2,0.8-63,7.8-70.5-13.1c-7.5-20.8-5.2-42.7,0.1-58.2
		c5.4-15.5,22.2-46.3,14.7-49.5c-7.5-3.2-24.4,19.1-32.6,38c-8.2,18.9-13.1,25.5-17,40.7c-3.5,13.6,6.3,36.7,6.3,36.7
		s-61.9-18.5-62-55.7s31.1-64.5,36.2-69.9c11.3-11.9,42.2-44.7,27.9-48.4s-34,25.9-43,36.1c-9.1,10.3-22.9,24-28.4,35.6
		c-5.5,11.7-10.8,31.7-10.8,31.7S36.3,223.6,80.9,162.8s44.8-59.6,65.6-60.5c20.8-1,55.8,23.4,55.8,23.4s-23-7.3-37.5-4.3
		c-14.5,3-29.4,9.6-29.4,9.6s20.8-7.5,37.4-6.1s31.3,7.4,31.3,7.4s-37.2,13.8-56.3,24.6c-19.1,10.8-49.1,37.8-49.1,37.8
		s34.5-26.9,55-34.8s54.7-22.4,54.7-22.4s8.6,13.6,8.6,19.6c0,7.2-43.9,30.9-65.1,57.6c-29,36.5-27.8,54.1-27.8,54.1
		s-2.6-19.8,36.7-56.9c39.5-37.3,60.9-46.3,60.9-46.3l18.8,39.7c0,0-39.3,41.1-55,83.1c-15.5,41.6-13.9,35.2-13.9,35.2
		s12.2-24.7,25.2-49.7c15.7-30.4,47.3-60.7,47.3-60.7l30.8,58.6c0,0-22.7,33.6-26.6,52c-4,18.5,2.8,38.5,2.8,38.5
		s-8.9-23.1,2.7-43.7c11.6-20.6,23.2-37.9,23.2-37.9l53.2,96.5l-28.6-65.5c0,0,11.4-1.2,20.6,2.9c7,3.1,24.3,16,24.3,16
		s-10.5-10.3-20.9-16.7s-28.2-9.1-28.2-9.1l-32.7-66.9c0,0,11.3-6.2,39.9-3.5c28.6,2.7,39.9,10.4,39.9,10.4s-41.1-14.8-53.8-14.4
		s-29.3,1-29.3,1l-22.5-51.4c0,0,16.1-6.8,43-7.4s43.1,1,43.1,1s-41.8-3.9-52.6-3.5c-10.8,0.4-33.4,7.2-37.1,3.9
		c-3.6-3.3-13.8-28.8-13.8-28.8s-0.3,4.2,15.7-4.5c16.1-8.7,29.4-25.9,44.1-29.1s42.8,0.6,42.8,0.6s-39.8-5.9-47.3-2.7
		c-16.5,7.1-25.1,20.3-39.3,25s-18.9,2.8-18.9,2.8s0.6,3.9-0.4-4.3c-0.7-5.7,10.3-19.7,21-28.5s40.2-17.4,40.2-17.4
		s-27.9,4.8-47.5,19.9c-9.4,7.2-16.1,19.8-16.1,19.8s-6.2-39.4,16.1-51.2s60-32.4,103.5,8.1s52.6,70.1,56.6,80.4
		c4,10.3,8.1,37.4,8.1,37.4s-30.8-12.3-46.9-14.7c-16-2.4-42-3.1-41.2,5.4c0.8,8.6,28.5,12.6,47.8,20.6s39.7,18.4,43.1,29.8
		s-10.2,50.3-10.2,50.3s-23.1-17.1-35-19.1c-11.9-2.1-25.6-6.8-28.6-2.7c-3,4.1-2.4,9.5,27.3,21.3c29.8,11.7,26.3,11.5,30.8,21.5
		c4.4,10-7.5,30.1-19.3,49.5C356.5,383,352.7,407.9,347.7,411.4z"/>
</g>
</svg>
